HIERARCHY
ROOT Hips
{
	OFFSET 0.000000 0.000000 0.000000
	CHANNELS 6 Xposition Yposition Zposition Zrotation Yrotation Xrotation 
	JOINT LHipJoint
	{
		OFFSET 0.000000 0.000000 0.000000
		CHANNELS 3 Zrotation Yrotation Xrotation
		JOINT LeftUpLeg
		{
			OFFSET 1.363060 -1.794630 0.839290
			CHANNELS 3 Zrotation Yrotation Xrotation
			JOINT LeftLeg
			{
				OFFSET 2.448110 -6.726130 0.000000
				CHANNELS 3 Zrotation Yrotation Xrotation
				JOINT LeftFoot
				{
					OFFSET 2.562200 -7.039590 0.000000
					CHANNELS 3 Zrotation Yrotation Xrotation
					JOINT LeftToeBase
					{
						OFFSET 0.157640 -0.433110 2.322550
						CHANNELS 3 Zrotation Yrotation Xrotation
						End Site
						{
							OFFSET 0.000000 0.000000 0.000000
						}
					}
				}
			}
		}
	}
	JOINT RHipJoint
	{
		OFFSET 0.000000 0.000000 0.000000
		CHANNELS 3 Zrotation Yrotation Xrotation
		JOINT RightUpLeg
		{
			OFFSET -1.305520 -1.794630 0.839290
			CHANNELS 3 Zrotation Yrotation Xrotation
			JOINT RightLeg
			{
				OFFSET -2.542530 -6.985550 0.000000
				CHANNELS 3 Zrotation Yrotation Xrotation
				JOINT RightFoot
				{
					OFFSET -2.568260 -7.056230 0.000000
					CHANNELS 3 Zrotation Yrotation Xrotation
					JOINT RightToeBase
					{
						OFFSET -0.164730 -0.452590 2.363150
						CHANNELS 3 Zrotation Yrotation Xrotation
						End Site
						{
							OFFSET 0.000000 0.000000 0.000000
						}
					}
				}
			}
		}
	}
}
MOTION
Frames: 17
Frame Time: 0.008333
3.069379 15.583236 1.509651 -178.461431 -73.772634 -164.633880 -14.157349 2.340060 -0.370056 3.099329 9.129386 -39.334827 6.814595 6.757322 111.260481 2.570586 13.656039 4.924786 2.444500 0.000001 -31.588300 8.672611 -1.889019 3.212573 15.901131 3.337161 -35.635468 2.375945 -2.932586 56.386860 -1.923837 4.382905 -37.301322 -0.111000 0.000000 -19.058701
2.894022 15.659648 1.487134 179.993150 -73.524404 -163.182501 -14.041810 2.059586 -0.319545 2.449004 8.620309 -40.654281 6.683141 6.667179 110.754526 2.570536 13.657740 5.007480 2.461600 0.000000 -31.785400 8.740401 -1.917246 2.999659 15.109093 2.648580 -34.049468 2.477304 -2.775357 54.635790 -1.817056 4.736023 -36.798778 -0.280200 0.000000 -21.266400
2.712528 15.750400 1.465281 178.488635 -73.281948 -161.755397 -13.902864 1.785574 -0.262824 1.753624 8.102829 -41.901018 6.498768 6.553950 109.986786 2.582413 13.740694 5.197788 2.516900 0.000000 -32.058300 8.810034 -1.941228 2.814082 14.235155 2.049706 -32.328815 2.575008 -2.595378 52.582977 -1.697371 5.034698 -36.077171 -0.420100 0.000000 -23.557500
2.524078 15.855656 1.443701 177.013440 -73.052162 -160.347042 -13.740155 1.523382 -0.199293 1.018247 7.566221 -43.048957 6.263123 6.416933 108.940225 2.605387 13.904485 5.474680 2.607900 0.000001 -32.343800 8.885521 -1.962212 2.654995 13.283480 1.540008 -30.454336 2.661244 -2.391872 50.208400 -1.556647 5.273041 -35.051452 -0.527400 -0.000000 -26.316700
2.328198 15.975301 1.421977 175.567363 -72.844397 -158.965495 -13.554439 1.277400 -0.126761 0.257484 7.000271 -44.074905 5.979614 6.255653 107.598073 2.637430 14.139139 5.817779 2.730800 0.000000 -32.636900 8.968514 -1.981308 2.523264 12.270641 1.130176 -28.412348 2.731051 -2.165541 47.511982 -1.396158 5.449711 -33.713398 -0.599801 0.000000 -28.966800
2.124201 16.108828 1.399629 174.137790 -72.667021 -157.600252 -13.347281 1.051881 -0.041990 -0.519434 6.394783 -44.958924 5.653445 6.069429 105.947756 2.675976 14.431885 6.199760 2.879900 0.000000 -32.894300 9.062232 -2.002754 2.420669 11.210933 0.823414 -26.203361 2.774873 -1.919268 44.492563 -1.212088 5.557023 -31.987345 -0.633900 -0.000001 -31.667300
1.911629 16.255461 1.376328 172.720114 -72.525458 -156.245669 -13.121192 0.850133 0.058903 -1.300634 5.743400 -45.687860 5.292030 5.858409 103.982627 2.718000 14.765369 6.595011 3.048200 -0.000000 -33.104600 9.169229 -2.032750 2.350298 10.124465 0.624936 -23.842611 2.782423 -1.658838 41.161405 -1.003934 5.583228 -29.797234 -0.625901 0.000000 -34.584400
1.690295 16.413943 1.351960 171.321027 -72.421297 -154.904829 -12.879517 0.674194 0.180227 -2.070677 5.044418 -46.256819 4.904227 5.623730 101.700401 2.760496 15.120366 6.983142 3.228600 -0.000000 -33.285399 9.290641 -2.079047 2.315784 9.037106 0.541838 -21.361013 2.744834 -1.393300 37.547376 -0.776471 5.515775 -27.084442 -0.573600 0.000000 -37.729200
1.460064 16.582843 1.326284 169.933709 -72.354565 -153.564579 -12.625280 0.525713 0.326249 -2.822797 4.297674 -46.666423 4.499843 5.366763 99.106516 2.800515 15.479302 7.333680 3.411501 -0.000000 -33.274800 9.428981 -2.151176 2.318151 7.967535 0.562164 -18.804483 2.656378 -1.135250 33.694930 -0.536989 5.351401 -23.796041 -0.481300 0.000000 -41.152000
1.220941 16.760111 1.300304 168.649939 -72.308448 -152.299487 -12.366384 0.404879 0.499830 -3.521312 3.522690 -46.932150 4.089505 5.093445 96.210789 2.836034 15.820895 7.658355 3.594300 -0.000001 -33.450400 9.576430 -2.260182 2.364108 6.960822 0.713927 -16.229946 2.512052 -0.898112 29.647806 -0.300390 5.051041 -19.845653 -0.347100 0.000000 -45.461900
0.973725 16.943908 1.273682 167.426502 -72.284414 -151.068511 -12.103987 0.311238 0.704106 -4.176117 2.718480 -47.061142 3.681681 4.804288 93.027650 2.865713 16.137441 7.936263 3.770600 0.000000 -33.528300 9.736557 -2.411517 2.444527 6.014343 0.939250 -13.703601 2.323504 -0.697409 25.503701 -0.081631 4.657363 -15.297021 -0.196800 -0.000000 -49.811400
0.718951 17.131867 1.247026 166.289246 -72.271273 -149.890296 -11.842046 0.244159 0.940258 -4.781318 1.897798 -47.065694 3.284370 4.502438 89.574796 2.888814 16.419163 8.175527 3.939600 -0.000000 -33.620100 9.907221 -2.608531 2.552444 5.134630 1.194648 -11.294800 2.103859 -0.544927 21.354233 0.104632 4.195508 -10.175469 -0.046200 0.000000 -54.179300
0.457764 17.321558 1.220744 165.225197 -72.261874 -148.757215 -11.581894 0.202596 1.209089 -5.344663 1.067026 -46.953886 2.904053 4.189311 85.871961 2.905378 16.662730 8.392500 4.103900 0.000001 -33.790100 10.090855 -2.846608 2.671939 4.307528 1.389650 -9.077910 1.873186 -0.447969 17.324893 0.248436 3.740688 -4.589037 0.095800 0.000000 -58.173300
0.191587 17.510583 1.195018 164.190100 -72.251901 -147.640599 -11.321880 0.186536 1.509342 -5.887472 0.229694 -46.722492 2.545687 3.865174 81.938470 2.914666 16.863863 8.593656 4.264300 0.000000 -33.928100 10.296188 -3.113447 2.779854 3.499153 1.392954 -7.124160 1.651222 -0.407594 13.560601 0.346375 3.412383 1.293285 0.251700 0.000000 -61.393800
-0.078165 17.696503 1.170205 163.163619 -72.239923 -146.537700 -11.061290 0.195816 1.839284 -6.421180 -0.609893 -46.363581 2.213179 3.530777 77.789846 2.916448 17.019696 8.822155 4.430300 -0.000000 -34.203300 10.530345 -3.390702 2.851301 2.683508 1.068037 -5.493525 1.453022 -0.417062 10.210465 0.398555 3.346489 7.245221 0.489000 -0.000000 -63.581700
-0.349893 17.877353 1.146514 162.144470 -72.227017 -145.468805 -10.800093 0.230623 2.191310 -6.949163 -1.437156 -45.862195 1.908757 3.189190 73.440657 2.907405 17.113120 9.095505 4.601000 -0.000000 -34.461800 10.796221 -3.657081 2.868175 1.847155 0.329794 -4.206620 1.285104 -0.462529 7.390180 0.404867 3.639035 12.999705 0.897900 0.000001 -64.467600
-0.622196 18.051377 1.124529 161.197337 -72.218742 -144.511019 -10.543932 0.289239 2.554721 -7.449069 -2.225926 -45.210188 1.633010 2.846180 68.903787 2.883650 17.122301 9.465825 4.781000 0.000000 -34.831000 11.082701 -3.895468 2.826911 1.011991 -0.806441 -3.235695 1.146816 -0.525852 5.145054 0.363414 4.267872 18.322504 1.526100 -0.000000 -64.209100
